Coordinates
version=1
nRows=13
nColumns=36
inDegrees=yes

Units are S.I. units (second, meters, Newtons, ...)
If the header above contains a line with 'inDegrees', this indicates whether rotational values are in degrees (yes) or radians (no).

endheader
time	pelvis_tilt	pelvis_list	pelvis_rotation	pelvis_tx	pelvis_ty	pelvis_tz	hip_flexion_r	hip_adduction_r	hip_rotation_r	knee_angle_r	knee_angle_r_beta	ankle_angle_r	subtalar_angle_r	mtp_angle_r	hip_flexion_l	hip_adduction_l	hip_rotation_l	knee_angle_l	knee_angle_l_beta	ankle_angle_l	subtalar_angle_l	mtp_angle_l	lumbar_extension	lumbar_bending	lumbar_rotation	arm_flex_r	arm_add_r	arm_rot_r	elbow_flex_r	pro_sup_r	arm_flex_l	arm_add_l	arm_rot_l	elbow_flex_l	pro_sup_l
      1.49152540	     -2.54241634	     -2.35936517	     -5.59590773	     -0.78003720	      1.31978570	     -0.04896274	     -0.99474347	      2.50625687	     17.68841999	      2.97667342	      0.05195275	      8.32641795	    -10.82485946	     -7.49999987	     -1.70272911	     -3.83300389	      5.93833315	      2.38468743	      0.04162065	     12.52338349	     -1.70383907	     -7.49999987	     -1.68528646	      1.12461383	      1.51981633	      3.00061615	     -5.38054225	     24.66023939	     21.87973657	     61.86444738	     -0.69649573	     -7.43077012	     20.21814614	     23.24536073	     72.94026312
      1.50847460	     -3.06722926	     -2.23932890	     -5.45979740	     -0.77984958	      1.31509366	     -0.04856956	     -0.14328574	      2.50477342	     17.55885330	      3.52734645	      0.06156381	      8.64868506	    -10.90392587	     -7.49999987	     -0.65795206	     -3.72245592	      6.25660841	      3.01566992	      0.05263337	     12.79093136	     -1.94517240	     -7.49999987	     -1.50178162	      1.03419162	      1.84342375	      2.51885467	     -5.57008281	     23.87435985	     22.16608769	     61.80269628	     -1.24594605	     -7.71159527	     19.53907193	     23.68779403	     72.39897482
      1.52542370	     -3.53402311	     -2.22212356	     -5.36283565	     -0.77959065	      1.31571192	     -0.04870017	      0.71340145	      2.62081180	     17.45014668	      4.22109503	      0.07367201	      9.17950287	    -10.93639696	     -7.49999987	      0.23972180	     -3.70802391	      6.42691944	      3.59664160	      0.06277324	     13.20594428	     -2.08659307	     -7.49999987	     -1.51822282	      1.05783420	      2.06888168	      2.04956557	     -5.88809012	     23.49864296	     22.59426427	     61.66066514	     -1.66318272	     -8.08235560	     19.15141028	     24.07421933	     71.42519421
      1.54237290	     -4.23090093	     -2.12257056	     -5.25792952	     -0.78597323	      1.30651708	     -0.05266192	      1.96632935	      2.63426424	     17.41405011	      5.00269689	      0.08731353	      9.58435224	    -11.31452855	     -7.49999987	      1.65930145	     -3.56764047	      6.63138976	      4.50045121	      0.07854769	     13.72747090	     -2.65144935	     -7.49999987	     -1.31091378	      1.13167097	      2.23092419	      1.59843554	     -6.39676479	     23.10883489	     23.12859093	     61.83053603	     -1.99555965	     -8.45791773	     19.20053720	     24.47096964	     71.61935153
      1.55932200	     -4.83636579	     -1.98650636	     -5.08018143	     -0.78563145	      1.30735213	     -0.05269178	      3.22045095	      2.61671900	     16.98442099	      5.96678858	      0.10414011	     10.27310587	    -11.06398591	     -7.49999987	      2.94861517	     -3.42404689	      6.76343754	      5.44189605	      0.09497900	     14.20267020	     -2.69782308	     -7.49999987	     -1.28412026	      1.06317379	      2.19060288	      1.00242889	     -6.86044013	     22.91604905	     23.95031448	     61.73902094	     -2.51454398	     -8.96647609	     19.03588578	     25.27559744	     71.17000108
      1.57627120	     -5.85678122	     -1.87264040	     -5.02160233	     -0.79752650	      1.30971910	     -0.05241961	      5.15415971	      2.70464749	     16.83344016	      7.12669157	      0.12438423	     10.77905116	    -11.39874264	     -7.49999987	      4.99151868	     -3.28939676	      7.07436540	      6.62639628	      0.11565243	     14.48435024	     -3.38263059	     -7.49999987	     -0.96852521	      1.13184757	      2.27752127	      0.76199620	     -7.28477582	     22.52557555	     24.23165331	     61.84134867	     -2.80829806	     -9.36936745	     18.70844393	     25.12160535	     71.59570955
      1.59322030	     -6.87927576	     -1.68328936	     -4.89803708	     -0.80336965	      1.31392859	     -0.05692856	      7.25137329	      2.65438714	     16.43040812	      8.38404809	      0.14632924	     11.29173650	    -11.40941043	     -7.49999987	      7.14510402	     -3.02927278	      7.32709134	      7.99284186	      0.13950141	     14.62772834	     -4.10471117	     -7.49999987	     -0.99371506	      1.15494169	      2.28725628	      0.72633199	     -7.72434990	     21.90183829	     24.74239864	     62.04822551	     -2.94653968	     -9.69473902	     18.01893386	     25.08303951	     72.25514587
      1.61016950	     -7.83827981	     -1.46595261	     -4.61430097	     -0.80920714	      1.31246808	     -0.06101868	      9.23233547	      2.49376611	     15.87611454	      9.46304050	      0.16516121	     11.65825405	    -11.23563840	     -7.49999987	      9.31284302	     -2.66484570	      7.65803970	      9.38858411	      0.16386170	     14.72008506	     -4.71545961	     -7.49999987	     -1.41992464	      1.11120332	      2.14210481	      0.58638011	     -8.06178414	     21.43550903	     25.30430937	     62.22705193	     -3.01057427	    -10.01091125	     17.41034655	     25.24021315	     72.75753730
      1.62711860	     -8.82584023	     -1.27667532	     -4.33525232	     -0.81533601	      1.30814899	     -0.06560282	     11.39078613	      2.30774779	     15.30403588	     10.66304074	      0.18610517	     12.14862244	    -11.04015957	     -7.49999987	     11.68896627	     -2.26391993	      7.97290340	     10.89438011	      0.19014280	     15.00077937	     -5.54372393	     -7.49999987	     -2.09273840	      1.16560833	      2.11107709	      0.50902474	     -8.51648284	     21.13650197	     25.70815135	     62.43413549	     -2.96524737	    -10.06822047	     16.88398851	     25.43884790	     73.32498709
      1.64406780	     -9.96562859	     -1.02879037	     -3.95720552	     -0.81520622	      1.30561808	     -0.06567722	     13.75408502	      2.04641120	     14.66458134	     12.00852960	      0.20958838	     12.65452646	    -10.65372059	     -7.49999987	     14.31984736	     -1.78460820	      8.32948880	     12.66653074	      0.22107267	     15.23476285	     -6.29203695	     -7.49999987	     -2.58652793	      1.18278670	      1.95799726	      0.11911301	     -8.87029813	     20.73798691	     25.94009970	     62.69154574	     -3.35272367	    -10.01132764	     16.21011706	     25.60599388	     74.16302609
      1.66101700	    -11.10118044	     -0.88664142	     -3.52412270	     -0.81473629	      1.30146416	     -0.06586878	     16.01918346	      1.85576778	     13.91914004	     13.30064930	      0.23214012	     12.98357956	    -10.26282213	     -7.49999987	     16.92622363	     -1.40698049	      8.51254587	     14.52542977	      0.25351657	     15.63112198	     -6.67058595	     -7.49999987	     -3.17702189	      1.24125304	      1.77499436	     -0.54383115	     -9.23284640	     20.48423066	     26.17086337	     62.85461382	     -3.87385192	    -10.03087833	     15.75474344	     25.52898838	     74.64343224
      1.67796610	    -12.29822713	     -0.80738962	     -3.08378634	     -0.81461068	      1.29550708	     -0.06601340	     18.39615690	      1.70621674	     13.09824970	     14.82969673	      0.25882703	     13.53118873	     -9.75345966	     -7.49999987	     19.78195936	     -1.09268899	      8.57453571	     16.86176320	      0.29429329	     16.19114873	     -7.07963526	     -7.49999987	     -3.84986936	      1.33400678	      1.56065874	     -1.33194682	     -9.53990895	     19.84813497	     26.08056228	     62.86699199	     -4.56869004	     -9.99023283	     15.25577494	     25.39563616	     74.88385446
      1.69491520	    -13.37141260	     -0.70873913	     -2.70371149	     -0.81418339	      1.29483109	     -0.06638060	     20.79962278	      1.56234496	     12.25357088	     16.76554030	      0.29261388	     14.07498736	     -9.23591761	     -7.49999987	     22.47271811	     -0.78594994	      8.46850123	     19.38057881	      0.33825491	     16.85998140	     -7.22255099	     -7.49999987	     -4.86152475	      1.36446116	      1.32799643	     -1.97345434	     -9.84127947	     19.10119032	     26.30156291	     62.90755467	     -5.13099193	    -10.06131297	     14.88304153	     25.26186245	     75.17239467
